# xmcd
#
# Track frame offsets: 
#        150
#        10446
#        20293
#        32428
#        42338
#        52157
#        63707
#        76299
#        86001
#        97379
#        108950
#        119594
#        130783
#        142823
#        153394
#        164660
#        175850
#        186454
#        197788
#        210904
#
# Disc length: 2966 seconds
#
# Revision: 0
# Processed by: cddbd v1.5.2PL0 Copyright (c) Steve Scherf et al.
# Submitted via: ExactAudioCopy v0.99pb3
#
DISCID=1b0b9414
DTITLE=Huey "Piano" Smith and His Clowns - the best of Huey "Piano" Smit
DTITLE=h and His Clowns
DYEAR=2009
DGENRE=honky tonk
TTITLE0=Rockin' Pneumonia And The Boogie Woogie Flu, Part 1
TTITLE1=Little Liza Jane
TTITLE2=Everybody's Whalin'
TTITLE3=Just A Lonely Clown
TTITLE4=Free, Single And Disengaged
TTITLE5=Don't You Jut Know It
TTITLE6=High Blood Pressure
TTITLE7=Little Chickee Wah Wah
TTITLE8=We Like Birdland
TTITLE9=Having A Good Time
TTITLE10=Don't You Know Yockomo
TTITLE11=Well I;ll Be John Brown
TTITLE12=Sea Cruise
TTITLE13=Would You Believe It (I Have A Cold)
TTITLE14=Genevieve
TTITLE15=Tu-Ber-Cu-Lucas And The Sinas Blules
TTITLE16=Beatnik Blues
TTITLE17=For Cryin' Out Lud
TTITLE18=Pop-Eye
TTITLE19=Scald-Dog
EXTD=
EXTT0=
EXTT1=
EXTT2=
EXTT3=
EXTT4=
EXTT5=
EXTT6=
EXTT7=
EXTT8=
EXTT9=
EXTT10=
EXTT11=
EXTT12=
EXTT13=
EXTT14=
EXTT15=
EXTT16=
EXTT17=
EXTT18=
EXTT19=
PLAYORDER=
